# xmcd CD database file
#
# Track frame offsets:
#	180
#	27709
#	44940
#	66736
#	95389
#	115591
#	128276
#	139786
#	155536
#	183498
#	199616
#	212082
#	229197
#	253219
#	275320
#	294026
#	306319
#	316546
#
# Disc length: 4366 seconds
#
# Revision: 0
# Processed by: cddbd v1.5.2PL0 Copyright (c) Steve Scherf et al.
# Submitted via: CDex 1.70beta2
#
DISCID=0a110c12
DTITLE=Jim Beatty - Clarinet and Rhythm
DYEAR=1996
DGENRE=Jazz
TTITLE0=Sweet Georgia Brown 
TTITLE1=Burgundy Street Blues
TTITLE2=I Can't Believe That You're In Love With Me 
TTITLE3=I Surrender Dear
TTITLE4=Honeysuckle Rose 
TTITLE5=C - Jam Blues 
TTITLE6=Temptation Rag 
TTITLE7=New Orleans
TTITLE8=Making Whoopee
TTITLE9=Wrap Your Troubles in Dreams 
TTITLE10=Just a Gigolo 
TTITLE11=Hello Dolly 
TTITLE12=But Beautiful 
TTITLE13=Here's That Rainy Day 
TTITLE14=Si Tu Vois Ma Mere 
TTITLE15=Ain't Misbehavin' 
TTITLE16=Over the Rainbow 
TTITLE17=Little Enough
EXTD=YEAR: 1996
EXTT0=
EXTT1=
EXTT2=
EXTT3=
EXTT4=
EXTT5=
EXTT6=
EXTT7=
EXTT8=
EXTT9=
EXTT10=
EXTT11=
EXTT12=
EXTT13=
EXTT14=
EXTT15=
EXTT16=
EXTT17=
PLAYORDER=
